<mxfile host="app.diagrams.net" modified="2023-04-02T05:34:46.232Z" agent="Mozilla/5.0 (X11; CrOS x86_64 14541.0.0) AppleWebKit/537.36 (KHTML, like Gecko) Chrome/111.0.0.0 Safari/537.36" version="21.1.2" etag="Ntq7EF0Fck_RjGovom-n" type="github">
  <diagram name="Page-1" id="Sc6AzGQucwFbFyOn86L0">
    <mxGraphModel>
      <root>
        <mxCell id="0" />
        <mxCell id="1" parent="0" />
      </root>
    </mxGraphModel>
  </diagram>
</mxfile>
